<?xml version="1.0" encoding="UTF-8"?>
<svg width="500px" height="500px" viewBox="0 0 500 500" version="1.1" xmlns="http://www.w3.org/2000/svg" xmlns:xlink="http://www.w3.org/1999/xlink">
    <!-- Generator: Sketch 60.1 (88133) - https://sketch.com -->
    <title>Beethoven</title>
    <desc>Created with Sketch.</desc>
    <g id="Beethoven" stroke="none" stroke-width="1" fill="none" fill-rule="evenodd">
        <rect fill="#35AFF7" x="0" y="0" width="500" height="500"></rect>
        <g id="Group" transform="translate(40.000000, 77.000072)">
            <path d="M2.84217094e-14,443.829928 C11.276,345.313928 54.529,309.165928 85.976,306.291928 L311.5,263.419928 C395.712,263.419928 430.489,443.829928 430.489,443.829928 L2.84217094e-14,443.829928 Z" id="Fill-1" fill="#215957"></path>
            <path d="M66.8477,216.333528 L128.0397,210.364528 L236.9487,90.8185277 L246.2887,237.246528 L335.7557,207.593528 L293.6307,76.2275277 C270.2007,-63.4764723 70.4517,12.4135277 79.6667,115.942528 L66.8477,216.333528 Z" id="Fill-3" fill="#E0E0E0"></path>
            <path d="M242.2852,162.136428 C285.9182,141.921428 288.8432,193.452428 242.7562,205.217428 C196.6662,216.983428 229.0012,166.570428 229.0012,166.570428" id="Fill-5" fill="#FCE9BF"></path>
            <polygon id="Clip-8" points="151.4984 275.182128 250.4424 275.182128 250.4424 443.829928 151.4984 443.829928"></polygon>
            <polygon id="Fill-7" fill="#B22D24" points="250.4424 275.182128 208.3534 443.830128 151.4984 443.830128 155.7394 293.449128"></polygon>
            <polygon id="Fill-10" fill="#FCE9BF" points="250.4424 275.182128 155.7394 293.449128 154.8354 262.420128 131.1994 266.042128 92.2144 118.616128 240.901614 89.4509175"></polygon>
            <path d="M176.1987,181.886528 C174.5887,177.364528 176.9497,172.393528 181.4727,170.783528 C185.9907,169.175528 190.9617,171.536528 192.5717,176.058528 C194.1807,180.581528 191.8207,185.552528 187.3017,187.160528 C182.7797,188.770528 177.8077,186.409528 176.1987,181.886528" id="Fill-12" fill="#111142"></path>
            <path d="M133.3223,194.659328 C131.7123,190.137328 134.0733,185.166328 138.5963,183.556328 C143.1143,181.948328 148.0853,184.309328 149.6953,188.831328 C151.3043,193.354328 148.9433,198.325328 144.4253,199.933328 C139.9033,201.543328 134.9313,199.182328 133.3223,194.659328" id="Fill-14" fill="#111142"></path>
            <polygon id="Fill-16" fill="#FFFFFF" points="213 343.504328 249.028 255.860328 285.667 305.753328"></polygon>
            <polygon id="Fill-18" fill="#FFFFFF" points="168.6929 350.395828 97.6669 319.190828 155.1649 273.738828"></polygon>
        </g>
    </g>
</svg>