<?xml version="1.0" encoding="UTF-8"?>
<svg width="18px" height="18px" viewBox="0 0 18 18" version="1.1" xmlns="http://www.w3.org/2000/svg" xmlns:xlink="http://www.w3.org/1999/xlink">
    <!-- Generator: Sketch 60.1 (88133) - https://sketch.com -->
    <title>DiscoverIcon</title>
    <desc>Created with Sketch.</desc>
    <g id="Preview" stroke="none" stroke-width="1" fill="none" fill-rule="evenodd">
        <g id="MacBook-15&quot;-Copy-29" transform="translate(-458.000000, -103.000000)" fill="#242427" fill-rule="nonzero">
            <g id="Group-15">
                <path d="M467.02832,120.540039 C468.194336,120.540039 469.292969,120.315918 470.324219,119.867676 C471.355469,119.419434 472.263672,118.802734 473.048828,118.017578 C473.833984,117.232422 474.449219,116.325684 474.894531,115.297363 C475.339844,114.269043 475.5625,113.168945 475.5625,111.99707 C475.5625,110.831055 475.338379,109.732422 474.890137,108.701172 C474.441895,107.669922 473.825195,106.760254 473.040039,105.972168 C472.254883,105.184082 471.34668,104.568848 470.31543,104.126465 C469.28418,103.684082 468.185547,103.462891 467.019531,103.462891 C465.853516,103.462891 464.756348,103.684082 463.728027,104.126465 C462.699707,104.568848 461.791504,105.184082 461.003418,105.972168 C460.215332,106.760254 459.598633,107.669922 459.15332,108.701172 C458.708008,109.732422 458.485352,110.831055 458.485352,111.99707 C458.485352,113.168945 458.709473,114.269043 459.157715,115.297363 C459.605957,116.325684 460.222656,117.232422 461.007812,118.017578 C461.792969,118.802734 462.699707,119.419434 463.728027,119.867676 C464.756348,120.315918 465.856445,120.540039 467.02832,120.540039 Z M467.02832,118.975586 C466.061523,118.975586 465.15625,118.79541 464.3125,118.435059 C463.46875,118.074707 462.727539,117.575195 462.088867,116.936523 C461.450195,116.297852 460.952148,115.556641 460.594727,114.712891 C460.237305,113.869141 460.058594,112.963867 460.058594,111.99707 C460.058594,111.030273 460.237305,110.125 460.594727,109.28125 C460.952148,108.4375 461.450195,107.696289 462.088867,107.057617 C462.727539,106.418945 463.467285,105.920898 464.308105,105.563477 C465.148926,105.206055 466.052734,105.027344 467.019531,105.027344 C467.986328,105.027344 468.891602,105.206055 469.735352,105.563477 C470.579102,105.920898 471.320312,106.418945 471.958984,107.057617 C472.597656,107.696289 473.097168,108.4375 473.45752,109.28125 C473.817871,110.125 473.998047,111.030273 473.998047,111.99707 C474.003906,112.963867 473.82666,113.869141 473.466309,114.712891 C473.105957,115.556641 472.60791,116.297852 471.972168,116.936523 C471.336426,117.575195 470.595215,118.074707 469.748535,118.435059 C468.901855,118.79541 467.995117,118.975586 467.02832,118.975586 Z M463.618164,116.145508 L468.311523,113.869141 C468.581055,113.746094 468.780273,113.552734 468.90918,113.289062 L471.15918,108.586914 C471.299805,108.299805 471.286621,108.068359 471.119629,107.892578 C470.952637,107.716797 470.716797,107.699219 470.412109,107.839844 L465.727539,110.098633 C465.469727,110.21582 465.273438,110.412109 465.138672,110.6875 L462.871094,115.398438 C462.742188,115.679688 462.762695,115.906738 462.932617,116.07959 C463.102539,116.252441 463.331055,116.274414 463.618164,116.145508 Z M467.02832,113.03418 C466.741211,113.03418 466.496582,112.933105 466.294434,112.730957 C466.092285,112.528809 465.991211,112.28418 465.991211,111.99707 C465.991211,111.71582 466.092285,111.472656 466.294434,111.267578 C466.496582,111.0625 466.741211,110.959961 467.02832,110.959961 C467.30957,110.959961 467.55127,111.0625 467.753418,111.267578 C467.955566,111.472656 468.056641,111.71582 468.056641,111.99707 C468.056641,112.28418 467.955566,112.528809 467.753418,112.730957 C467.55127,112.933105 467.30957,113.03418 467.02832,113.03418 Z" id="DiscoverIcon"></path>
            </g>
        </g>
    </g>
</svg>