<?xml version="1.0" encoding="UTF-8"?>
<svg width="478px" height="478px" viewBox="0 0 478 478" version="1.1" xmlns="http://www.w3.org/2000/svg" xmlns:xlink="http://www.w3.org/1999/xlink">
    <!-- Generator: Sketch 60.1 (88133) - https://sketch.com -->
    <title>Edward Elgar</title>
    <desc>Created with Sketch.</desc>
    <g id="Edward-Elgar" stroke="none" stroke-width="1" fill="none" fill-rule="evenodd">
        <rect fill="#00504B" x="0" y="0" width="478" height="478"></rect>
        <g id="Group-Copy" transform="translate(239.500000, 297.000000) scale(-1, 1) translate(-239.500000, -297.000000) translate(78.000000, 65.000000)">
            <path d="M0,460.651383 C17.3588194,253.49464 29.8629164,240.954566 51.3591605,235.933778 C62.880214,233.242756 270.783107,203.374364 270.783107,203.374364 C330.999381,188.439627 353.498114,388.06735 252.577358,460.564855 C196.359786,462.747314 154.196608,463.84338 126.087822,463.853052 C98.0683061,463.862609 56.0390321,462.795385 0,460.651383 Z" id="Fill-67" fill="#111142"></path>
            <path d="M194.050946,214.568278 L119.478996,298.932993 L107.926615,227.104999 C130.032978,220.417979 146.825141,216.239072 158.303103,214.568278 C169.781065,212.897484 181.697012,212.897484 194.050946,214.568278 Z" id="Fill-68" fill="#FFFFFF"></path>
            <path d="M194.050946,214.568278 L107.926615,227.105107 C107.926615,227.105107 97.0699261,215.841322 88.542294,202.57982 C72.8902973,178.235161 86.5189528,79.2600806 86.5189528,79.2600806 L177.426709,26.6607764 C186.446601,69.8126571 191.988013,103.047494 194.050946,126.365288 C196.113879,149.683082 196.113879,179.084078 194.050946,214.568278 Z" id="Fill-69" fill="#FCE9BF"></path>
            <path d="M86.5189528,79.2605133 C96.6432204,18.6292452 200.731321,3.72262989 243.096174,32.387201 C253.05408,39.1244893 259.601582,48.2694199 260.718578,59.7917079 C273.12221,187.808838 194.050946,214.568711 194.050946,214.568711 L179.660702,55.2003146 L107.874762,87.114013" id="Fill-70" fill="#FCE9BF"></path>
            <path d="M194.050946,214.568711 L241.655046,196.994863 C253.373788,191.114202 262.770894,174.033585 265.818329,161.268538 C274.011078,126.946116 310.795089,36.3599233 248.368162,36.3599233 C207.187283,52.2410605 204.76504,128.160744 204.76504,128.160744 L194.050946,214.568711 Z" id="Fill-71" fill="#D3D3D3"></path>
            <path d="M135.422665,139.582984 C133.982669,135.469658 136.188575,130.961548 140.346525,129.51653 C144.506635,128.068268 149.045919,130.229305 150.486996,134.340468 C151.926993,138.453794 149.720006,142.961904 145.564217,144.410167 C141.403026,145.856266 136.862662,143.69631 135.422665,139.582984" id="Fill-72" fill="#111142"></path>
            <path d="M98.0575067,133.304619 C96.61751,129.191293 98.8234164,124.683183 102.985687,123.237084 C107.141477,121.789902 111.680761,123.95094 113.121838,128.062102 C114.561834,132.175428 112.359169,136.682457 108.197978,138.128556 C104.037868,139.577901 99.4975033,137.417945 98.0575067,133.304619" id="Fill-73" fill="#111142"></path>
            <path d="M189.0842,147.864041 C229.267993,129.636913 231.539795,176.464798 189.170621,187.004992 C146.804688,197.545187 176.863133,151.847575 176.863133,151.847575" id="Fill-74" fill="#FCE9BF"></path>
            <path d="M174.27894,0.636589502 C257.449935,-3.09752224e-14 249.394548,38.693889 247.595105,37.7929181 C245.795662,36.8919473 217.060969,62.2165476 205.386518,62.6956965 C172.605799,64.0368809 123.937585,42.0371308 85.7609291,85.2146147 C83.9614862,85.2146147 97.6169509,2.08055795e-13 174.27894,0.636589502 Z" id="Fill-808" fill="#D3D3D3"></path>
        </g>
    </g>
</svg>