<?xml version="1.0" encoding="UTF-8"?>
<svg width="11px" height="18px" viewBox="0 0 11 18" version="1.1" xmlns="http://www.w3.org/2000/svg" xmlns:xlink="http://www.w3.org/1999/xlink">
    <!-- Generator: Sketch 60.1 (88133) - https://sketch.com -->
    <title>MyMusicIcon</title>
    <desc>Created with Sketch.</desc>
    <g id="Preview" stroke="none" stroke-width="1" fill="none" fill-rule="evenodd">
        <g id="MacBook-15&quot;-Copy-29" transform="translate(-319.000000, -103.000000)" fill="#242427" fill-rule="nonzero">
            <g id="Group-15">
                <path d="M321.536667,120.590439 C321.860672,120.590439 322.20269,120.527267 322.562721,120.400925 C322.922752,120.274582 323.260353,120.076187 323.575523,119.80574 C323.890694,119.535294 324.147316,119.187576 324.34539,118.762589 C324.543465,118.337601 324.642502,117.826141 324.642502,117.22821 L324.642502,109.619766 C324.642502,109.408463 324.668137,109.270149 324.719406,109.204826 C324.770676,109.139503 324.891663,109.086884 325.082367,109.046967 L328.900803,108.209534 C329.046829,108.177948 329.164108,108.108093 329.25264,107.999969 C329.341171,107.891846 329.385437,107.762115 329.385437,107.610779 L329.385437,104.487778 C329.385437,104.255142 329.303337,104.072357 329.139137,103.939423 C328.974937,103.806488 328.777069,103.762497 328.545532,103.807449 L324.267319,104.739914 C323.696945,104.867538 323.411758,105.172318 323.411758,105.654251 L323.419586,114.888672 C323.462524,115.282074 323.302536,115.514893 322.939621,115.587128 L321.61618,115.868378 C320.766937,116.041138 320.13829,116.340057 319.73024,116.765137 C319.322189,117.190216 319.118164,117.726761 319.118164,118.374771 C319.118164,119.024612 319.344162,119.556351 319.796158,119.969986 C320.248154,120.383621 320.828323,120.590439 321.536667,120.590439 Z" id="MyMusicIcon"></path>
            </g>
        </g>
    </g>
</svg>