<?xml version="1.0" encoding="UTF-8"?>
<svg width="500px" height="500px" viewBox="0 0 500 500" version="1.1" xmlns="http://www.w3.org/2000/svg" xmlns:xlink="http://www.w3.org/1999/xlink">
    <!-- Generator: Sketch 60.1 (88133) - https://sketch.com -->
    <title>PachelbelIcon</title>
    <desc>Created with Sketch.</desc>
    <g id="PachelbelIcon" stroke="none" stroke-width="1" fill="none" fill-rule="evenodd">
        <rect fill="#F77026" x="0" y="0" width="500" height="500"></rect>
        <g id="Group" transform="translate(38.000000, 69.000000)">
            <path d="M328.168699,102.761482 C321.095551,88.9729579 295.587245,81.0367881 271.193062,85.0353381 C246.798878,89.032365 232.75684,103.451517 239.832032,117.238518 C246.90518,131.027042 272.413486,138.963212 296.80767,134.964662 C321.201853,130.967635 335.241847,116.548483 328.168699,102.761482" id="Fill-292-Copy-2" fill="#D3D3D3"></path>
            <path d="M324.825862,146.089428 C318.367448,136.277812 295.076514,130.631137 272.804085,133.476468 C250.531657,136.320542 237.711718,146.580826 244.170131,156.389929 C250.628545,166.201546 273.919479,171.848221 296.191908,169.00289 C318.464336,166.158815 331.284275,155.899788 324.825862,146.089428" id="Fill-293-Copy-2" fill="#D3D3D3"></path>
            <path d="M424,430.919993 C413.514368,339.212874 384.405281,298.707252 355.165088,296.032818 L115.420982,281.269904 C37.1195263,281.269904 0,430.919993 0,430.919993 L424,430.919993 Z" id="Fill-502" fill="#00033A"></path>
            <path d="M166.795184,286.44088 C186.825599,289.390471 202.261617,291.192666 213.103237,291.847463 C223.944857,292.502261 238.348149,292.502261 256.313114,291.847463 L253.399044,263.097995 L295.812991,264.063323 L298.383026,94.8367117 L143.626746,34.331945 L166.795184,286.44088 Z" id="Fill-503" fill="#FCE9BF"></path>
            <path d="M162.561321,87.0199728 L166.041654,250.923781 C166.041654,250.923781 76.8947246,233.863442 81.6154439,102.082632 C86.3398825,-29.6963166 291.422918,-35.7749991 298.380795,94.8384804 L162.561321,87.0199728 Z" id="Fill-504" fill="#D3D3D3"></path>
            <path d="M244.505458,173.921023 C245.443651,169.552377 242.665335,165.249824 238.301668,164.311491 C233.942651,163.373159 229.645002,166.153714 228.706809,170.52236 C227.769546,174.891005 230.546002,179.193558 234.906879,180.131891 C239.270546,181.071154 243.568195,178.289669 244.505458,173.921023" id="Fill-505" fill="#111142"></path>
            <path d="M291.157453,163.768599 C292.095646,159.399953 289.31733,155.0974 284.953663,154.159068 C280.593716,153.220735 276.296996,156.00129 275.358804,160.369936 C274.420611,164.738582 277.197996,169.041135 281.558874,169.979467 C285.92254,170.918731 290.21926,168.137245 291.157453,163.768599" id="Fill-506" fill="#111142"></path>
            <path d="M164.588711,182.475395 C121.919061,169.094847 125.448675,217.011248 169.358711,222.295886 C213.272465,227.581454 177.371009,184.961791 177.371009,184.961791" id="Fill-507" fill="#FCE9BF"></path>
            <polygon id="Fill-508" fill="#FFFFFF" points="166.795184 286.44088 206.547044 430.9199 259.411289 430.9199 256.313114 291.847463"></polygon>
            <path d="M132.168699,93.7614819 C125.095551,79.9729579 99.587245,72.0367881 75.1930616,76.0353381 C50.7988782,80.032365 36.7568397,94.4515174 43.8320319,108.238518 C50.9051799,122.027042 76.4134863,129.963212 100.80767,125.964662 C125.201853,121.967635 139.241847,107.548483 132.168699,93.7614819" id="Fill-292-Copy" fill="#D3D3D3"></path>
            <path d="M128.825862,137.089428 C122.367448,127.277812 99.0765138,121.631137 76.8040854,124.476468 C54.5316569,127.320542 41.711718,137.580826 48.1701315,147.389929 C54.628545,157.201546 77.9194792,162.848221 100.191908,160.00289 C122.464336,157.158815 135.284275,146.899788 128.825862,137.089428" id="Fill-293-Copy" fill="#D3D3D3"></path>
        </g>
    </g>
</svg>