<?xml version="1.0" encoding="UTF-8"?>
<svg width="19px" height="16px" viewBox="0 0 19 16" version="1.1" xmlns="http://www.w3.org/2000/svg" xmlns:xlink="http://www.w3.org/1999/xlink">
    <!-- Generator: Sketch 60.1 (88133) - https://sketch.com -->
    <title>RewindIcon</title>
    <desc>Created with Sketch.</desc>
    <g id="Preview" stroke="none" stroke-width="1" fill="none" fill-rule="evenodd">
        <g id="MacBook-15&quot;-Copy-29" transform="translate(-811.000000, -842.000000)" fill="#35AFF7" fill-rule="nonzero">
            <g id="Group-13" transform="translate(790.000000, 820.000000)">
                <g id="Group-2">
                    <path d="M25.2870117,37.2634766 C26.165918,37.2634766 26.6141602,36.8152344 26.6141602,35.9451172 L26.6141602,30.2146484 C26.728418,30.6892578 27.0799805,31.0671875 27.6336914,31.3923828 L36.6688477,36.6921875 C37.0643555,36.9207031 37.415918,37.0349609 37.8202148,37.0349609 C38.6463867,37.0349609 39.3407227,36.4109375 39.3407227,35.2859375 L39.3407227,24.4226562 C39.3407227,23.2888672 38.6551758,22.6736328 37.8290039,22.6736328 C37.415918,22.6736328 37.0643555,22.7878906 36.6688477,23.0164062 L27.6336914,28.3162109 C27.0799805,28.6501953 26.728418,29.0105469 26.6141602,29.4763672 L26.6141602,23.7722656 C26.6141602,22.8845703 26.165918,22.4626953 25.2870117,22.4539062 L23.1864258,22.4539062 C22.3075195,22.4539062 21.8591506,22.9021484 21.8591506,23.7722656 L21.8591506,35.9451172 C21.8504883,36.8152344 22.2987305,37.2634766 23.1864258,37.2634766 L25.2870117,37.2634766 Z" id="RewindIcon"></path>
                </g>
            </g>
        </g>
    </g>
</svg>